<svg width="1021" height="638" viewBox="0 0 1021 638" fill="none" xmlns="http://www.w3.org/2000/svg">
<path d="M1020.5 319C1020.5 494.512 804.831 637.5 510.5 637.5C216.169 637.5 0.5 494.512 0.5 319C0.5 143.488 216.169 0.5 510.5 0.5C804.831 0.5 1020.5 143.488 1020.5 319Z" stroke="#4A4A4A"/>
<path d="M0.5 319H1020.5" stroke="#4A4A4A"/>
<path d="M510.5 0.5V637.5" stroke="#4A4A4A"/>
<path d="M994.422 159.434C893.313 77.2415 696.53 23.3276 510.5 23.3276C324.47 23.3276 127.687 77.2415 26.5783 159.434" stroke="#4A4A4A"/>
<path d="M26.5783 478.566C127.687 560.759 324.47 614.672 510.5 614.672C696.53 614.672 893.313 560.759 994.422 478.566" stroke="#4A4A4A"/>
<path d="M908.761 67.248C846.592 37.1993 746.012 11.4138 650.313 3.65022C554.614 -4.11333 466.386 -4.11333 370.687 3.65022C274.988 11.4138 174.408 37.1993 112.239 67.248" stroke="#4A4A4A"/>
<path d="M112.239 570.752C174.408 600.801 274.988 626.586 370.687 634.35C466.386 642.113 554.614 642.113 650.313 634.35C746.012 626.586 846.592 600.801 908.761 570.752" stroke="#4A4A4A"/>
</svg>
